<svg xmlns="http://www.w3.org/2000/svg" width="1102" height="546.499" viewBox="0 0 1102 546.499">
  <g id="_2nd_Block" data-name="2nd Block" transform="translate(-126 -844.377)">
    <text id="Changing_the_way_you_manage_your_health_care" data-name="Changing the way you manage your health care" transform="translate(126 844.377)" fill="#0d1e4f" font-size="80" font-family="SegoeUI, Segoe UI"><tspan x="0" y="86">Digitalizing your way of </tspan><tspan x="0" y="175">managing your Clinic!</tspan></text>
    <g id="Group_58" data-name="Group 58" transform="translate(126 1154.015)">
      <g id="Group_55" data-name="Group 55" transform="translate(0 0)">
        <g id="Group_52" data-name="Group 52" transform="translate(0 112.362)">
          <text id="Online_consultation_with_your_doctor" data-name="Online consultation with your doctor" transform="translate(0 0)" fill="#0d1e4f" font-size="32" font-family="SegoeUI, Segoe UI"><tspan x="0" y="35">Online consultation</tspan><tspan x="0" y="74">with your patients</tspan></text>
          <g id="Group_49" data-name="Group 49" transform="translate(0 100.788)">
            <text id="Learn_more" data-name="Learn more" transform="translate(0 -3.289)" fill="#0d1e4f" font-size="20" font-family="SegoeUI, Segoe UI"><tspan x="0" y="22">Learn more</tspan></text>
            <g id="Group_48" data-name="Group 48" transform="translate(107.999 0.212)">
              <ellipse id="Ellipse_6" data-name="Ellipse 6" cx="10.5" cy="10" rx="10.5" ry="10" transform="translate(0 -0.001)" fill="#50d8be"/>
              <path id="Vector" d="M0,5.075H0ZM6.525,0,11.6,5.075,6.525,10.15" transform="translate(4.618 5.346)" fill="none" stroke="#fff" stroke-linecap="round" stroke-linejoin="round" stroke-width="2"/>
            </g>
          </g>
        </g>
        <g id="Frame">
          <g id="Group">
            <path id="Vector-2" data-name="Vector" d="M93.767,86.033H0V0H93.767ZM38.753,4.649H8.338c-.361,0-.725,0-1.085.026a6.445,6.445,0,0,0-6.11,6.562q-.007,20.846,0,41.693a6.478,6.478,0,0,0,6.532,6.562c1.163.007,2.326.02,3.488-.008a1.017,1.017,0,0,1,.949.466c3.235,4.358,6.55,8.656,9.7,13.074,1.149,1.613,4.589,1.7,5.756-.248,2.575-4.294,5.357-8.461,8.031-12.7a1.123,1.123,0,0,1,1.1-.589q16.408.021,32.816.009a6.472,6.472,0,0,0,6.771-6.782q0-5.255,0-10.509V11.258a6.346,6.346,0,0,0-2.972-5.564,6.878,6.878,0,0,0-3.972-1.051Q54.045,4.657,38.753,4.649ZM71.09,73.7c-.151-.252-.26-.424-.36-.6-1.655-2.929-3.317-5.853-4.956-8.792a2.716,2.716,0,0,0-2.186-1.461,14.164,14.164,0,0,0-1.591-.1q-7.261-.012-14.52,0a16.085,16.085,0,0,0-1.883.077,3.188,3.188,0,0,0-2.715,3.871,3.239,3.239,0,0,0,3.337,2.5q6.945.014,13.891,0a.84.84,0,0,1,.851.5c2.373,4.236,4.783,8.451,7.141,12.695a3.3,3.3,0,0,0,3.171,1.637,2.838,2.838,0,0,0,2.669-1.64c2.367-4.218,4.774-8.412,7.145-12.626a.954.954,0,0,1,.986-.563c1.409.031,2.821.037,4.23,0a6.434,6.434,0,0,0,6.324-6.522q.009-20.874,0-41.746a6.441,6.441,0,0,0-6.464-6.56c-2.039-.025-4.078-.008-6.117-.007a4.059,4.059,0,0,0-.431.042v6.429h6.437v41.93c-2.293,0-4.539.008-6.785,0A2.994,2.994,0,0,0,76.4,64.376C74.773,67.3,73.1,70.2,71.45,73.1,71.35,73.278,71.24,73.451,71.09,73.7Z" fill="#fff"/>
            <path id="Vector-3" data-name="Vector" d="M37.614,0Q52.907,0,68.2,0a6.878,6.878,0,0,1,3.973,1.051,6.348,6.348,0,0,1,2.972,5.564V37.569q0,5.255,0,10.509a6.473,6.473,0,0,1-6.771,6.782q-16.408.007-32.816-.009a1.122,1.122,0,0,0-1.1.589c-2.673,4.235-5.456,8.4-8.031,12.7-1.166,1.945-4.606,1.861-5.756.248-3.15-4.418-6.466-8.717-9.7-13.074a1.017,1.017,0,0,0-.949-.466c-1.162.028-2.325.015-3.488.008A6.478,6.478,0,0,1,0,48.289Q0,27.441,0,6.594A6.448,6.448,0,0,1,6.113.031C6.473.006,6.837,0,7.2,0Q22.405,0,37.614,0ZM68.572,48.413V6.515H6.579v41.9c1.967,0,3.889.039,5.81-.013a3.617,3.617,0,0,1,3.256,1.626c2.4,3.287,4.858,6.531,7.293,9.791.121.162.257.311.421.509.159-.237.277-.408.389-.582Q26.88,54.839,30,49.93a2.786,2.786,0,0,1,1.937-1.383,9.087,9.087,0,0,1,1.476-.13q17.178-.01,34.356-.006Z" transform="translate(1.139 4.644)" fill="#0d1e4f"/>
            <path id="Vector-4" data-name="Vector" d="M28.289,59.366c.15-.248.26-.42.361-.6C30.3,55.86,31.974,52.961,33.6,50.04a2.993,2.993,0,0,1,2.858-1.635c2.247.01,4.493,0,6.786,0V6.479H36.81V.05a4.059,4.059,0,0,1,.431-.043c2.039,0,4.078-.02,6.117.007a6.44,6.44,0,0,1,6.464,6.56q.009,20.874,0,41.746A6.434,6.434,0,0,1,43.5,54.842c-1.409.038-2.82.032-4.23,0a.953.953,0,0,0-.986.563c-2.37,4.216-4.779,8.409-7.145,12.626a2.838,2.838,0,0,1-2.669,1.64A3.3,3.3,0,0,1,25.3,68.036c-2.358-4.244-4.767-8.459-7.141-12.695a.842.842,0,0,0-.851-.5q-6.945.021-13.891,0a3.238,3.238,0,0,1-3.337-2.5,3.187,3.187,0,0,1,2.715-3.871,16.33,16.33,0,0,1,1.883-.077q7.261-.009,14.52,0a14.164,14.164,0,0,1,1.591.1,2.717,2.717,0,0,1,2.186,1.461c1.639,2.938,3.3,5.863,4.956,8.792C28.028,58.941,28.138,59.114,28.289,59.366Z" transform="translate(42.801 14.334)" fill="#50d8be"/>
            <path id="Vector-5" data-name="Vector" d="M61.992,41.9h-.8q-17.178,0-34.356.006a9.087,9.087,0,0,0-1.476.13,2.783,2.783,0,0,0-1.937,1.383q-3.113,4.916-6.256,9.814c-.112.175-.23.345-.389.582-.165-.2-.3-.347-.421-.509-2.437-3.26-4.894-6.5-7.293-9.791A3.616,3.616,0,0,0,5.81,41.885c-1.921.052-3.843.013-5.81.013V0H61.992ZM14.743,16.005a4.923,4.923,0,1,0,4.829,5A4.891,4.891,0,0,0,14.743,16.005Zm37.485,4.922a4.9,4.9,0,1,0-4.9,4.923A4.881,4.881,0,0,0,52.228,20.927ZM26.1,20.883a4.9,4.9,0,1,0,4.94-4.878A4.888,4.888,0,0,0,26.1,20.883Z" transform="translate(7.719 11.16)" fill="#fff"/>
            <path id="Vector-6" data-name="Vector" d="M4.979,0A4.923,4.923,0,1,1,0,4.725,4.916,4.916,0,0,1,4.979,0Z" transform="translate(17.483 27.164)" fill="#0d1e4f"/>
            <path id="Vector-7" data-name="Vector" d="M9.8,4.923a4.9,4.9,0,1,1-9.8,0,4.9,4.9,0,1,1,9.8,0Z" transform="translate(50.15 27.164)" fill="#0d1e4f"/>
            <path id="Vector-8" data-name="Vector" d="M0,4.879a4.9,4.9,0,1,1,9.8.086A4.9,4.9,0,1,1,0,4.879Z" transform="translate(33.82 27.165)" fill="#0d1e4f"/>
          </g>
        </g>
      </g>
      <g id="Group_57" data-name="Group 57" transform="translate(812 0)">
        <g id="Group_54" data-name="Group 54" transform="translate(0 112.362)">
          <text id="Digital_medical_records" data-name="Digital medical records" transform="translate(0 0)" fill="#0d1e4f" font-size="32" font-family="SegoeUI, Segoe UI"><tspan x="0" y="35">Digital medical</tspan><tspan x="0" y="74">records</tspan></text>
          <g id="Group_51" data-name="Group 51" transform="translate(0 100.788)">
            <text id="Learn_more-2" data-name="Learn more" transform="translate(0 -3.789)" fill="#0d1e4f" font-size="20" font-family="SegoeUI, Segoe UI"><tspan x="0" y="22">Learn more</tspan></text>
            <g id="Group_48-2" data-name="Group 48" transform="translate(108.001 0.212)">
              <ellipse id="Ellipse_6-2" data-name="Ellipse 6" cx="10" cy="9.5" rx="10" ry="9.5" transform="translate(0 -0.001)" fill="#50d8be"/>
              <path id="Vector-9" data-name="Vector" d="M0,4.833H0ZM6.214,0l4.833,4.833L6.214,9.667" transform="translate(4.409 5.105)" fill="none" stroke="#fff" stroke-linecap="round" stroke-linejoin="round" stroke-width="2"/>
            </g>
          </g>
        </g>
        <g id="Frame-2" data-name="Frame">
          <path id="Vector-10" data-name="Vector" d="M36.895,83.951q-14.8,0-29.6,0C2.921,83.942,0,80.41,0,75.133Q0,42.009,0,8.883C0,3.55,2.934.013,7.349.011q24-.007,48-.011a7.4,7.4,0,0,1,6.313,3.447q5.485,7.688,11.019,15.325a10.89,10.89,0,0,1,2.022,6.61q-.03,24.64-.013,49.277c0,5.6-3.175,9.43-7.833,9.436q-14.984.02-29.967,0C36.895,84.05,36.895,84,36.895,83.951ZM34.784,6.591c-.352-.026-.617-.061-.881-.061q-12.8,0-25.6,0c-1.981,0-2.863,1.093-2.863,3.5q0,31.978,0,63.955c0,2.464.892,3.541,2.93,3.541q22.182,0,44.363,0c1.98,0,2.9-1.079,2.894-3.48q-.008-20.095-.04-40.189c0-.353-.035-.7-.058-1.158H54.483c-4.16,0-8.32.013-12.48,0-4.284-.018-7.207-3.53-7.216-8.664q-.014-8.1,0-16.207C34.784,7.433,34.784,7.041,34.784,6.591ZM61.156,77.527H66.59a6.709,6.709,0,0,0,.728-.015c1.181-.138,1.909-1.077,1.91-2.565q.011-24.9-.018-49.8a3.566,3.566,0,0,0-.567-1.88Q63.067,15.392,57.388,7.624a2.952,2.952,0,0,0-1.894-1,26.187,26.187,0,0,0-3.547-.044h-4.7c.4.533.65.882.91,1.22q6.155,7.915,12.321,15.816a3.161,3.161,0,0,1,.69,2.13C61.15,42.963,61.156,60.179,61.156,77.527ZM40.44,7.727c-.029.564-.055.845-.057,1.126q-.036,6.895-.064,13.789c-.007,2.517.9,3.607,2.987,3.611q5.279.007,10.561,0c.255,0,.511-.033.949-.066C49.993,19.994,45.295,13.963,40.44,7.727Z" transform="translate(0)" fill="#0d1e4f"/>
          <path id="Vector-11" data-name="Vector" d="M18.949.013C24.167.013,29.384.022,34.6.007a2.936,2.936,0,0,1,2.815,1.545c1.127,1.981.241,4.64-1.738,5.18a4.189,4.189,0,0,1-1.107.134q-15.6.01-31.208,0A3.257,3.257,0,0,1,.009,3.2,3.141,3.141,0,0,1,2.927.026C4.261-.024,5.6.013,6.932.013Z" transform="translate(9.384 57.476)" fill="#50d8be"/>
          <path id="Vector-12" data-name="Vector" d="M18.985,0C24.227,0,29.466,0,34.707.011a3.081,3.081,0,0,1,3.133,3.221A3.289,3.289,0,0,1,35.2,6.819a4.718,4.718,0,0,1-.557.013q-15.721,0-31.444,0A3.149,3.149,0,0,1,.013,3.754C-.14,1.725,1.1.053,2.892.026,5.9-.02,8.907.009,11.916.007Q15.45,0,18.985,0Z" transform="translate(9.452 41.346)" fill="#50d8be"/>
        </g>
      </g>
      <g id="Group_56" data-name="Group 56" transform="translate(406 0)">
        <g id="Group_53" data-name="Group 53" transform="translate(0 112.362)">
          <text id="Medicine_on_your_front_door" data-name="Medicine on your front door" transform="translate(0 0)" fill="#0d1e4f" font-size="32" font-family="SegoeUI, Segoe UI"><tspan x="0" y="35">TeleMedicine on </tspan><tspan x="0" y="74">wherever you are</tspan></text>
          <g id="Group_50" data-name="Group 50" transform="translate(0 100.788)">
            <text id="Learn_more-3" data-name="Learn more" transform="translate(0 -3.789)" fill="#0d1e4f" font-size="20" font-family="SegoeUI, Segoe UI"><tspan x="0" y="22">Learn more</tspan></text>
            <g id="Group_48-3" data-name="Group 48" transform="translate(107.999 0.212)">
              <ellipse id="Ellipse_6-3" data-name="Ellipse 6" cx="10" cy="9.5" rx="10" ry="9.5" transform="translate(0 -0.001)" fill="#50d8be"/>
              <path id="Vector-13" data-name="Vector" d="M0,4.833H0ZM6.214,0l4.833,4.833L6.214,9.667" transform="translate(4.41 5.105)" fill="none" stroke="#fff" stroke-linecap="round" stroke-linejoin="round" stroke-width="2"/>
            </g>
          </g>
        </g>
        <g id="Frame-3" data-name="Frame" transform="translate(0)">
          <path id="Vector-14" data-name="Vector" d="M0,42Q0,22.837,0,3.672A3.431,3.431,0,0,1,2.5.142a3.634,3.634,0,0,1,1.6-.089C9.583,1.121,15.05,2.23,20.521,3.325q9.51,1.9,19.022,3.8a3.367,3.367,0,0,1,2.571,3.155c.015.2.008.4.008.6q0,31.182,0,62.366a7.665,7.665,0,0,1-.028.9,3.148,3.148,0,0,1-2.628,2.836q-9.235,1.85-18.472,3.694-8.374,1.675-16.748,3.352A3.486,3.486,0,0,1,.006,80.546q-.017-8.112,0-16.224Q0,53.161,0,42ZM12.24,43.787a3.493,3.493,0,1,0-3.467-3.516A3.5,3.5,0,0,0,12.24,43.787Z" transform="translate(24.576 0)" fill="#0d1e4f"/>
          <path id="Vector-15" data-name="Vector" d="M21.036.038V7.011H7.071V63.094H21.033v7c-.131.007-.267.021-.4.021-4.484,0-8.968-.04-13.452.013A7.03,7.03,0,0,1,.227,64.877,8.434,8.434,0,0,1,.01,63.095Q-.007,35.067,0,7.038a6.883,6.883,0,0,1,6.778-7C11.452-.03,16.123.016,20.792.015,20.862.014,20.932.028,21.036.038Z" transform="translate(0 6.979)" fill="#50d8be"/>
        </g>
      </g>
    </g>
  </g>
</svg>
