<svg xmlns="http://www.w3.org/2000/svg" width="1278" height="683" viewBox="0 0 1278 683">
  <g id="_3rd_Block" data-name="3rd Block" transform="translate(-127 -1562)">
    <g id="Phone" transform="translate(127 1562)">
      <rect id="Rectangle_18" data-name="Rectangle 18" width="1278" height="683" fill="#0d1e4f"/>
    </g>
    <g id="Group_88" data-name="Group 88" transform="translate(766.331 1648.467)">
      <text id="A_handy_way_to_get_treatment" data-name="A handy way to get treatment" transform="translate(0.668 0.534)" fill="#fff" font-size="68" font-family="SegoeUI, Segoe UI"><tspan x="0" y="73">A handy way to</tspan><tspan x="0" y="149">Manage your Clinic</tspan></text>
      <g id="Group_65" data-name="Group 65" transform="translate(1.215 238.806)">
        <g id="Group_62" data-name="Group 62" transform="translate(0 254.136)">
          <text id="Get_an_appointment" data-name="Get an appointment" transform="translate(60.451 1.591)" fill="#fff" font-size="28" font-family="SegoeUI, Segoe UI"><tspan x="0" y="30">Check your earnings and analysis</tspan></text>
          <g id="Group_71" data-name="Group 71" transform="translate(0 0)">
            <ellipse id="Ellipse_8" data-name="Ellipse 8" cx="19" cy="19.5" rx="19" ry="19.5" transform="translate(0.451 -0.409)" fill="#50d8be"/>
            <path id="_3" data-name="3" d="M8.465,7.285a5.908,5.908,0,0,1,2.95,1.9,4.77,4.77,0,0,1,1.154,3.232A5.343,5.343,0,0,1,10.7,16.751a6.784,6.784,0,0,1-4.54,1.565,7.486,7.486,0,0,1-3.771-.949A5.612,5.612,0,0,1,0,14.519l3.027-1.744a2.926,2.926,0,0,0,3.13,2.078,3.125,3.125,0,0,0,2.1-.641,2.255,2.255,0,0,0,.77-1.8,2.226,2.226,0,0,0-.77-1.77,3.044,3.044,0,0,0-2.1-.667h-.77L4.027,7.927l3.54-4.617H.539V0H11.826V2.924Z" transform="translate(13.011 10.138)" fill="#fff"/>
          </g>
          <path id="Vector" d="M0,10.994,10.994,0,21.988,10.994" transform="translate(549.099 24.792) rotate(180)" fill="none" stroke="#fff" stroke-linecap="round" stroke-linejoin="round" stroke-width="2"/>
        </g>
        <g id="Group_64" data-name="Group 64" transform="translate(0 0)">
          <text id="Services_for_your_needs" data-name="Services for your needs" transform="translate(60.451 1.728)" fill="#fff" font-size="28" font-family="SegoeUI, Segoe UI"><tspan x="0" y="30">Add your patients/appointment</tspan></text>
          <text id="Everybody_always_have_different_needs_and_we_provide_options_for_you_and_your_needs" data-name="Everybody always have different needs and we provide options for you and your needs" transform="translate(60.451 52.728)" fill="rgba(255,255,255,0.8)" font-size="20" font-family="SegoeUI, Segoe UI"><tspan x="0" y="22">Everybody always have different needs and we</tspan><tspan x="0" y="46">provide options for you and your needs</tspan></text>
          <g id="Group_59" data-name="Group 59">
            <circle id="Ellipse_7" data-name="Ellipse 7" cx="19" cy="19" r="19" transform="translate(0.451 -0.272)" fill="#50d8be"/>
            <path id="_1" data-name="1" d="M4.72,0H7.8V17.957H4.258V3.745L.872,4.694,0,1.667Z" transform="translate(15.396 9.847)" fill="#fff"/>
          </g>
          <path id="Vector-2" data-name="Vector" d="M0,10.994,10.994,0,21.988,10.994" transform="translate(527.112 13.328)" fill="none" stroke="#fff" stroke-linecap="round" stroke-linejoin="round" stroke-width="2"/>
          <line id="Line_7" data-name="Line 7" x2="448.916" transform="translate(60.183 131.527)" fill="none" stroke="#fff" stroke-width="0.5"/>
        </g>
        <g id="Group_63" data-name="Group 63" transform="translate(0 153.423)">
          <text id="Choose_your_doctor" data-name="Choose your doctor" transform="translate(60.451 2.304)" fill="#fff" font-size="28" font-family="SegoeUI, Segoe UI"><tspan x="0" y="30">Record and manage the Encounter</tspan></text>
          <g id="Group_60" data-name="Group 60" transform="translate(0 0)">
            <circle id="Ellipse_8-2" data-name="Ellipse 8" cx="19" cy="19" r="19" transform="translate(0.451 0.304)" fill="#50d8be"/>
            <path id="_2" data-name="2" d="M.128,18.316V15.674l6.131-6.31Q8.311,7.208,8.311,5.772A2.24,2.24,0,0,0,5.977,3.437a3.173,3.173,0,0,0-3,2.1L0,3.8A6.273,6.273,0,0,1,2.437.975,6.549,6.549,0,0,1,5.926,0a6.105,6.105,0,0,1,4.181,1.539,5.154,5.154,0,0,1,1.744,4.1q0,2.8-2.95,5.746L5.387,14.9h6.747v3.412Z" transform="translate(13.229 10.137)" fill="#fff"/>
          </g>
          <path id="Vector-3" data-name="Vector" d="M0,10.994,10.994,0,21.988,10.994" transform="translate(549.099 30.289) rotate(180)" fill="none" stroke="#fff" stroke-linecap="round" stroke-linejoin="round" stroke-width="2"/>
          <line id="Line_8" data-name="Line 8" x2="458.078" transform="translate(60.183 78.881)" fill="none" stroke="#fff" stroke-width="0.5"/>
        </g>
      </g>
    </g>
  </g>
</svg>
