<svg xmlns="http://www.w3.org/2000/svg" xmlns:xlink="http://www.w3.org/1999/xlink" width="1230" height="382" viewBox="0 0 1230 382">
  <defs>
    <filter id="card" x="0" y="0" width="442" height="382" filterUnits="userSpaceOnUse">
      <feOffset dy="13" input="SourceAlpha"/>
      <feGaussianBlur stdDeviation="19" result="blur"/>
      <feFlood flood-opacity="0.071"/>
      <feComposite operator="in" in2="blur"/>
      <feComposite in="SourceGraphic"/>
    </filter>
    <filter id="card-2" x="383" y="0" width="462" height="382" filterUnits="userSpaceOnUse">
      <feOffset dy="13" input="SourceAlpha"/>
      <feGaussianBlur stdDeviation="19" result="blur-2"/>
      <feFlood flood-opacity="0.071"/>
      <feComposite operator="in" in2="blur-2"/>
      <feComposite in="SourceGraphic"/>
    </filter>
    <filter id="card-3" x="787" y="0" width="443" height="382" filterUnits="userSpaceOnUse">
      <feOffset dy="13" input="SourceAlpha"/>
      <feGaussianBlur stdDeviation="19" result="blur-3"/>
      <feFlood flood-opacity="0.071"/>
      <feComposite operator="in" in2="blur-3"/>
      <feComposite in="SourceGraphic"/>
    </filter>
  </defs>
  <g id="row" transform="translate(57 44)">
    <g id="col-md-4">
      <g id="card-4" data-name="card">
        <g transform="matrix(1, 0, 0, 1, -57, -44)" filter="url(#card)">
          <rect id="card-5" data-name="card" width="328" height="268" transform="translate(57 44)" fill="#fff"/>
        </g>
        <g id="circle_sec-" data-name="circle sec-" transform="translate(40 35)">
          <rect id="circle_sec--2" data-name="circle sec-" width="72" height="72" rx="36" fill="#cfeaf6"/>
          <g id="icon_cool-icon-125" data-name="icon cool-icon-125" transform="translate(20 21.563)">
            <g id="_003-cardiogram" data-name="003-cardiogram">
              <g id="Group">
                <path id="Vector" d="M15.991,2.655A9.443,9.443,0,0,0,0,9.182,9.435,9.435,0,0,0,1.563,14.5h6.9l1.227-2.045a.937.937,0,0,1,1.595-.021L13.87,16.5l3.773-7.965a.938.938,0,0,1,1.673-.043L22.55,14.5h7.868C36.247,5.391,24.728-4.986,15.991,2.655Z" transform="translate(0 0)" fill="#0d1e4f"/>
                <path id="Vector-2" data-name="Vector" d="M18.119,4.867,15.5,0,11.792,7.824a.938.938,0,0,1-1.638.1L7.468,3.706l-.72,1.2a.937.937,0,0,1-.8.455H0c.186.2-.807-.8,12.283,12.226a.937.937,0,0,0,1.322,0C26.494,4.764,25.7,5.555,25.889,5.36H18.944a.937.937,0,0,1-.825-.493Z" transform="translate(3.046 11.015)" fill="#0d1e4f"/>
              </g>
            </g>
          </g>
        </g>
        <text id="h5_feature-title_sec-" data-name="h5 #feature-title sec-" transform="translate(40 127)" fill="#0d1e4f" font-size="16" font-family="Montserrat-Bold, Montserrat" font-weight="700"><tspan x="0" y="15">Reporting and other </tspan><tspan x="0" y="39">add-on modules</tspan></text>
        <rect id="fixed-width_fixed-height_sec-" data-name="fixed-width fixed-height sec-" width="50" height="2" transform="translate(40 171)" fill="#0d1e4f"/>
        <text id="paragraph_feature-description_sec-" data-name="paragraph feature-description sec-" transform="translate(40 193)" fill="#737373" font-size="14" font-family="Montserrat-Regular, Montserrat"><tspan x="0" y="14">The gradualaccumulation of </tspan><tspan x="0" y="34">information about </tspan></text>
      </g>
    </g>
    <g id="col-md-4-2" data-name="col-md-4" transform="translate(382.943)">
      <g id="card-6" data-name="card">
        <g transform="matrix(1, 0, 0, 1, -439.94, -44)" filter="url(#card-2)">
          <rect id="card-7" data-name="card" width="348" height="268" transform="translate(440 44)" fill="#fff"/>
        </g>
        <g id="circle_sec--3" data-name="circle sec-" transform="translate(40 35)">
          <rect id="circle_sec--4" data-name="circle sec-" width="72" height="72" rx="36" transform="translate(0.057)" fill="#cfeaf6"/>
          <g id="icon_cool-icon-153" data-name="icon cool-icon-153" transform="translate(21.604 20)">
            <g id="_004-stethoscope" data-name="004-stethoscope">
              <g id="Group-2" data-name="Group">
                <path id="Vector-3" data-name="Vector" d="M9.125,20.588V23.5A8.438,8.438,0,1,0,26,23.5V22.468a4.688,4.688,0,1,0-1.875,0V23.5A6.563,6.563,0,1,1,11,23.5V20.59c3.826-.7,8.242-5.453,9.006-9.972a5.671,5.671,0,0,0-3.381-6.533V2.813a2.812,2.812,0,1,0-2.812,2.813h1.664a3.853,3.853,0,0,1,2.68,4.68c-.658,3.9-5.045,8.507-8.094,8.507-3.415,0-8.16-5.422-8.189-9.437a3.767,3.767,0,0,1,2.75-3.75h1.69A2.813,2.813,0,1,0,3.5,2.813V4.074A5.57,5.57,0,0,0,0,9.375c.01,4.7,4.88,10.427,9.125,11.213Zm15-3.651H26v1.875H24.125Z" transform="translate(0)" fill="#0d1e4f"/>
              </g>
            </g>
          </g>
        </g>
        <text id="h5_feature-title_sec--2" data-name="h5 #feature-title sec-" transform="translate(40.057 127)" fill="#0d1e4f" font-size="16" font-family="Montserrat-Bold, Montserrat" font-weight="700"><tspan x="0" y="15">Revenue Cycle Management</tspan></text>
        <rect id="fixed-width_fixed-height_sec--2" data-name="fixed-width fixed-height sec-" width="50" height="2" transform="translate(40.057 171)" fill="#0d1e4f"/>
        <text id="paragraph_feature-description_sec--2" data-name="paragraph feature-description sec-" transform="translate(40.057 193)" fill="#737373" font-size="14" font-family="Montserrat-Regular, Montserrat"><tspan x="0" y="14">The gradual accumulation of </tspan><tspan x="0" y="34">information about </tspan></text>
      </g>
    </g>
    <g id="col-md-4-3" data-name="col-md-4" transform="translate(787)">
      <g id="card-8" data-name="card">
        <g transform="matrix(1, 0, 0, 1, -844, -44)" filter="url(#card-3)">
          <rect id="card-9" data-name="card" width="329" height="268" transform="translate(844 44)" fill="#fff"/>
        </g>
        <g id="circle_sec--5" data-name="circle sec-" transform="translate(40 35)">
          <rect id="circle_sec--6" data-name="circle sec-" width="72" height="72" rx="36" fill="#cfeaf6"/>
          <g id="icon_cool-icon-157" data-name="icon cool-icon-157" transform="translate(24.243 20)">
            <g id="_005-medical-history" data-name="005-medical-history">
              <path id="Vector-4" data-name="Vector" d="M2.1,27.339h19.3a2.046,2.046,0,0,0,2.1-1.958V1.968A2.053,2.053,0,0,0,21.408,0H18.226V1.788a.569.569,0,0,1-.55.577H5.8a.6.6,0,0,1-.582-.577V0H2.1A2.053,2.053,0,0,0,0,1.968V25.381A2.046,2.046,0,0,0,2.1,27.339ZM6.4,9.391a.557.557,0,0,1,.557-.557H9.809V5.983a.557.557,0,0,1,.557-.557h2.783a.557.557,0,0,1,.557.557V8.835h2.852a.557.557,0,0,1,.557.557v2.783a.557.557,0,0,1-.557.557H13.7v2.852a.557.557,0,0,1-.557.557H10.365a.557.557,0,0,1-.557-.557V12.73H6.957a.557.557,0,0,1-.557-.557Zm.227,9.6h10.26a.557.557,0,1,1,0,1.113H6.627a.557.557,0,1,1,0-1.113ZM4.54,21.774H18.973a.557.557,0,0,1,0,1.113H4.54a.557.557,0,0,1,0-1.113Z" transform="translate(0 4.661)" fill="#0d1e4f"/>
              <path id="Vector-5" data-name="Vector" d="M10.783,2.157h-2.6a.557.557,0,0,1-.544-.439A2.266,2.266,0,0,0,5.388,0H5.382A2.314,2.314,0,0,0,3.138,1.738a.557.557,0,0,1-.539.418H0V5.913H10.783Z" transform="translate(6.33)" fill="#0d1e4f"/>
              <path id="Vector-6" data-name="Vector" d="M3.409,5.635V8.487h1.67V5.635a.557.557,0,0,1,.557-.557H8.487V3.409H5.635a.557.557,0,0,1-.557-.557V0H3.409V2.852a.557.557,0,0,1-.557.557H0v1.67H2.852A.557.557,0,0,1,3.409,5.635Z" transform="translate(7.513 11.2)" fill="#0d1e4f"/>
            </g>
          </g>
        </g>
        <text id="h5_feature-title_sec--3" data-name="h5 #feature-title sec-" transform="translate(40 127)" fill="#0d1e4f" font-size="16" font-family="Montserrat-Bold, Montserrat" font-weight="700"><tspan x="0" y="15">Clinical Features</tspan></text>
        <rect id="fixed-width_fixed-height_sec--3" data-name="fixed-width fixed-height sec-" width="50" height="2" transform="translate(40 171)" fill="#0d1e4f"/>
        <text id="paragraph_feature-description_sec--3" data-name="paragraph feature-description sec-" transform="translate(40 193)" fill="#737373" font-size="14" font-family="Montserrat-Regular, Montserrat"><tspan x="0" y="14">The gradual accumulation of </tspan><tspan x="0" y="34">information about </tspan></text>
      </g>
    </g>
  </g>
</svg>
